<?xml version="1.0" encoding="utf-8"?>
<svg version="1.1" id="Livello_1" x="0px" y="0px" viewBox="0 0 135.556 40" style="enable-background:new 0 0 5435.8 1604;" width="135px" height="40px" xmlns="http://www.w3.org/2000/svg">
  <style type="text/css">
	.st0{fill-rule:evenodd;clip-rule:evenodd;}
	.st1{fill-rule:evenodd;clip-rule:evenodd;fill:#A6A6A6;}
	.st2{fill:#FFFFFF;}
	.st3{fill-rule:evenodd;clip-rule:evenodd;fill:#FFFFFF;}
	.st4{fill-rule:evenodd;clip-rule:evenodd;fill:url(#SVGID_1_);}
	.st5{fill-rule:evenodd;clip-rule:evenodd;fill:url(#SVGID_2_);}
	.st6{fill-rule:evenodd;clip-rule:evenodd;fill:url(#SVGID_3_);}
	.st7{fill-rule:evenodd;clip-rule:evenodd;fill:url(#SVGID_4_);}
	.st8{opacity:0.2;fill-rule:evenodd;clip-rule:evenodd;enable-background:new    ;}
	.st9{opacity:0.12;fill-rule:evenodd;clip-rule:evenodd;enable-background:new    ;}
	.st10{opacity:0.25;fill-rule:evenodd;clip-rule:evenodd;fill:#FFFFFF;enable-background:new    ;}
</style>
  <path class="st0" d="M 130.534 40 L 5.022 40 C 2.254 40 0 37.746 0 35 L 0 5 C 0 2.244 2.254 0 5.022 0 L 130.534 0 C 133.299 0 135.556 2.244 135.556 5 L 135.556 35 C 135.556 37.746 133.299 40 130.534 40 Z"/>
  <path class="st1" d="M 130.534 0.801 C 132.856 0.801 134.756 2.688 134.756 5 L 134.756 35 C 134.756 37.312 132.868 39.2 130.534 39.2 L 5.022 39.2 C 2.701 39.2 0.801 37.312 0.801 35 L 0.801 5 C 0.801 2.688 2.688 0.801 5.022 0.801 C 5.022 0.801 130.534 0.801 130.534 0.801 Z M 130.534 0 L 5.022 0 C 2.254 0 0 2.254 0 5 L 0 35 C 0 37.756 2.254 40 5.022 40 L 130.534 40 C 133.299 40 135.556 37.756 135.556 35 L 135.556 5 C 135.556 2.254 133.299 0 130.534 0 Z"/>
  <path class="st2" d="M 71.412 13.232 C 70.507 13.232 69.743 12.915 69.14 12.292 C 68.541 11.686 68.207 10.85 68.222 9.998 C 68.222 9.087 68.531 8.317 69.14 7.706 C 69.741 7.082 70.504 6.766 71.409 6.766 C 72.304 6.766 73.068 7.082 73.681 7.706 C 74.289 8.337 74.599 9.107 74.599 9.998 C 74.589 10.91 74.28 11.681 73.681 12.289 C 73.08 12.918 72.317 13.232 71.412 13.232 Z M 44.477 13.232 C 43.591 13.232 42.823 12.92 42.195 12.304 C 41.571 11.691 41.254 10.915 41.254 10 C 41.254 9.085 41.571 8.309 42.195 7.696 C 42.811 7.08 43.579 6.768 44.477 6.768 C 44.915 6.768 45.342 6.856 45.751 7.033 C 46.152 7.204 46.479 7.439 46.721 7.726 L 46.781 7.798 L 46.105 8.461 L 46.035 8.379 C 45.654 7.925 45.142 7.703 44.467 7.703 C 43.863 7.703 43.337 7.918 42.903 8.342 C 42.466 8.768 42.244 9.327 42.244 10.003 C 42.244 10.678 42.466 11.237 42.903 11.663 C 43.337 12.087 43.863 12.302 44.467 12.302 C 45.11 12.302 45.651 12.087 46.072 11.663 C 46.322 11.414 46.476 11.065 46.531 10.624 L 44.364 10.624 L 44.364 9.691 L 47.461 9.691 L 47.474 9.775 C 47.496 9.933 47.519 10.095 47.519 10.244 C 47.519 11.105 47.26 11.801 46.746 12.314 C 46.162 12.923 45.399 13.232 44.477 13.232 Z M 80.29 13.1 L 79.334 13.1 L 76.409 8.419 L 76.434 9.262 L 76.434 13.097 L 75.479 13.097 L 75.479 6.9 L 76.569 6.9 L 76.599 6.948 L 79.349 11.356 L 79.324 10.516 L 79.324 6.9 L 80.29 6.9 L 80.29 13.1 Z M 64.235 13.1 L 63.267 13.1 L 63.267 7.833 L 61.589 7.833 L 61.589 6.9 L 65.91 6.9 L 65.91 7.833 L 64.232 7.833 L 64.232 13.1 Z M 60.801 13.1 L 59.836 13.1 L 59.836 6.9 L 60.801 6.9 L 60.801 13.1 Z M 55.377 13.1 L 54.411 13.1 L 54.411 7.833 L 52.733 7.833 L 52.733 6.9 L 57.055 6.9 L 57.055 7.833 L 55.377 7.833 L 55.377 13.1 Z M 52.122 13.09 L 48.422 13.09 L 48.422 6.9 L 52.122 6.9 L 52.122 7.833 L 49.389 7.833 L 49.389 9.534 L 51.855 9.534 L 51.855 10.456 L 49.389 10.456 L 49.389 12.157 L 52.122 12.157 L 52.122 13.09 Z M 69.848 11.651 C 70.28 12.082 70.803 12.299 71.412 12.299 C 72.037 12.299 72.549 12.087 72.975 11.651 C 73.399 11.227 73.613 10.671 73.613 10 C 73.613 9.329 73.399 8.771 72.978 8.349 C 72.546 7.918 72.02 7.701 71.414 7.701 C 70.788 7.701 70.277 7.913 69.853 8.349 C 69.429 8.773 69.215 9.329 69.215 10 C 69.215 10.671 69.427 11.229 69.848 11.651 L 69.848 11.651 Z"/>
  <path class="st3" d="M 68.132 21.755 C 65.776 21.755 63.866 23.544 63.866 26.01 C 63.866 28.454 65.788 30.264 68.132 30.264 C 70.489 30.264 72.399 28.464 72.399 26.01 C 72.399 23.544 70.489 21.755 68.132 21.755 Z M 68.132 28.578 C 66.843 28.578 65.733 27.511 65.733 26 C 65.733 24.467 66.846 23.421 68.132 23.421 C 69.422 23.421 70.531 24.467 70.531 26 C 70.534 27.521 69.422 28.578 68.132 28.578 Z M 58.823 21.755 C 56.467 21.755 54.556 23.544 54.556 26.01 C 54.556 28.454 56.479 30.264 58.823 30.264 C 61.18 30.264 63.09 28.464 63.09 26.01 C 63.09 23.544 61.177 21.755 58.823 21.755 Z M 58.823 28.578 C 57.534 28.578 56.424 27.511 56.424 26 C 56.424 24.467 57.536 23.421 58.823 23.421 C 60.113 23.421 61.222 24.467 61.222 26 C 61.222 27.521 60.113 28.578 58.823 28.578 Z M 47.746 23.055 L 47.746 24.856 L 52.067 24.856 C 51.935 25.866 51.601 26.611 51.09 27.122 C 50.456 27.756 49.479 28.444 47.756 28.444 C 45.1 28.444 43.022 26.299 43.022 23.643 C 43.022 20.988 45.1 18.843 47.756 18.843 C 49.19 18.843 50.235 19.409 51.01 20.132 L 52.287 18.855 C 51.21 17.823 49.776 17.033 47.766 17.033 C 44.122 17.033 41.065 20 41.065 23.633 C 41.065 27.277 44.12 30.235 47.766 30.235 C 49.733 30.235 51.21 29.591 52.377 28.379 C 53.566 27.189 53.943 25.511 53.943 24.157 C 53.943 23.736 53.91 23.357 53.843 23.035 L 47.743 23.035 C 47.746 23.032 47.746 23.055 47.746 23.055 Z M 93.055 24.457 C 92.698 23.501 91.621 21.746 89.412 21.746 C 87.222 21.746 85.402 23.469 85.402 26 C 85.402 28.389 87.202 30.254 89.624 30.254 C 91.569 30.254 92.701 29.065 93.168 28.367 L 91.723 27.399 C 91.244 28.11 90.579 28.576 89.634 28.576 C 88.678 28.576 88.01 28.142 87.566 27.287 L 93.255 24.93 C 93.255 24.933 93.055 24.457 93.055 24.457 Z M 87.255 25.878 C 87.21 24.234 88.531 23.399 89.477 23.399 C 90.222 23.399 90.843 23.766 91.055 24.299 L 87.255 25.878 Z M 82.633 30 L 84.501 30 L 84.501 17.501 L 82.633 17.501 L 82.633 30 Z M 79.566 22.701 L 79.499 22.701 C 79.077 22.2 78.277 21.746 77.255 21.746 C 75.132 21.746 73.177 23.613 73.177 26.012 C 73.177 28.402 75.122 30.247 77.255 30.247 C 78.264 30.247 79.077 29.791 79.499 29.279 L 79.566 29.279 L 79.566 29.89 C 79.566 31.514 78.699 32.389 77.299 32.389 C 76.155 32.389 75.444 31.566 75.155 30.878 L 73.531 31.556 C 73.998 32.679 75.242 34.068 77.297 34.068 C 79.487 34.068 81.342 32.778 81.342 29.634 L 81.342 22 L 79.576 22 L 79.576 22.701 C 79.579 22.701 79.566 22.701 79.566 22.701 Z M 77.422 28.578 C 76.133 28.578 75.055 27.501 75.055 26.012 C 75.055 24.511 76.133 23.424 77.422 23.424 C 78.699 23.424 79.689 24.524 79.689 26.012 C 79.701 27.501 78.701 28.578 77.422 28.578 Z M 101.801 17.501 L 97.335 17.501 L 97.335 30 L 99.202 30 L 99.202 25.267 L 101.803 25.267 C 103.871 25.267 105.903 23.768 105.903 21.389 C 105.903 19.01 103.878 17.501 101.801 17.501 Z M 101.856 23.521 L 99.2 23.521 L 99.2 19.232 L 101.856 19.232 C 103.255 19.232 104.045 20.387 104.045 21.377 C 104.045 22.357 103.245 23.521 101.856 23.521 Z M 113.389 21.733 C 112.033 21.733 110.634 22.334 110.055 23.643 L 111.711 24.332 C 112.068 23.643 112.721 23.409 113.412 23.409 C 114.379 23.409 115.357 23.988 115.379 25.02 L 115.379 25.152 C 115.045 24.963 114.312 24.674 113.434 24.674 C 111.646 24.674 109.833 25.651 109.833 27.484 C 109.833 29.162 111.3 30.239 112.933 30.239 C 114.187 30.239 114.878 29.673 115.31 29.018 L 115.377 29.018 L 115.377 29.985 L 117.177 29.985 L 117.177 25.197 C 117.177 22.968 115.522 21.733 113.389 21.733 Z M 113.155 28.578 C 112.544 28.578 111.689 28.279 111.689 27.511 C 111.689 26.544 112.756 26.177 113.666 26.177 C 114.489 26.177 114.878 26.354 115.367 26.598 C 115.232 27.721 114.285 28.569 113.155 28.578 Z M 123.746 22 L 121.601 27.422 L 121.534 27.422 L 119.312 22 L 117.302 22 L 120.636 29.578 L 118.736 33.791 L 120.681 33.791 L 125.811 22 C 125.811 22 123.746 22 123.746 22 Z M 106.933 30 L 108.801 30 L 108.801 17.501 L 106.933 17.501 L 106.933 30 Z"/>
  <linearGradient id="SVGID_1_" gradientUnits="userSpaceOnUse" x1="1682.1077" y1="1339.4783" x2="1624.2924" y2="1309.6345" gradientTransform="matrix(0.290275, 0, 0, -0.562346, -466.474972, 761.956405)">
    <stop offset="0" style="stop-color:#00A0FF"/>
    <stop offset="0.0066" style="stop-color:#00A1FF"/>
    <stop offset="0.2601" style="stop-color:#00BEFF"/>
    <stop offset="0.5122" style="stop-color:#00D2FF"/>
    <stop offset="0.7604" style="stop-color:#00DFFF"/>
    <stop offset="1" style="stop-color:#00E3FF"/>
  </linearGradient>
  <path class="st4" d="M 10.434 7.534 C 10.145 7.846 9.977 8.322 9.977 8.945 L 9.977 31.057 C 9.977 31.681 10.145 32.157 10.444 32.456 L 10.521 32.524 L 22.91 20.135 L 22.91 19.858 L 10.511 7.466 C 10.511 7.466 10.434 7.534 10.434 7.534 Z"/>
  <linearGradient id="SVGID_2_" gradientUnits="userSpaceOnUse" x1="1712.6624" y1="1274.8376" x2="1606.5613" y2="1274.8376" gradientTransform="matrix(0.228056, 0, 0, -0.19202, -356.74754, 264.794988)">
    <stop offset="0" style="stop-color:#FFE000"/>
    <stop offset="0.4087" style="stop-color:#FFBD00"/>
    <stop offset="0.7754" style="stop-color:#FFA500"/>
    <stop offset="1" style="stop-color:#FF9C00"/>
  </linearGradient>
  <path class="st5" d="M 27.033 24.277 L 22.9 20.145 L 22.9 19.855 L 27.033 15.723 L 27.122 15.778 L 32.01 18.556 C 33.409 19.344 33.409 20.646 32.01 21.444 L 27.122 24.222 C 27.122 24.222 27.033 24.277 27.033 24.277 Z"/>
  <linearGradient id="SVGID_3_" gradientUnits="userSpaceOnUse" x1="1707.4414" y1="1290.0475" x2="1646.682" y2="1211.2225" gradientTransform="matrix(0.374565, 0, 0, -0.288716, -614.72055, 394.755364)">
    <stop offset="0" style="stop-color:#FF3A44"/>
    <stop offset="1" style="stop-color:#C31162"/>
  </linearGradient>
  <path class="st6" d="M 27.122 24.222 L 22.9 20 L 10.434 32.466 C 10.89 32.955 11.656 33.01 12.511 32.534 L 27.122 24.222"/>
  <linearGradient id="SVGID_4_" gradientUnits="userSpaceOnUse" x1="1660.6357" y1="1365.6676" x2="1687.767" y2="1330.4501" gradientTransform="matrix(0.374565, 0, 0, -0.288567, -614.72055, 394.265202)">
    <stop offset="0" style="stop-color:#32A071"/>
    <stop offset="0.0685" style="stop-color:#2DA771"/>
    <stop offset="0.4762" style="stop-color:#15CF74"/>
    <stop offset="0.8009" style="stop-color:#06E775"/>
    <stop offset="1" style="stop-color:#00F076"/>
  </linearGradient>
  <path class="st7" d="M 27.122 15.778 L 12.511 7.479 C 11.656 6.99 10.888 7.058 10.434 7.546 L 22.9 20 L 27.122 15.778 Z"/>
  <path class="st8" d="M 27.033 24.132 L 12.521 32.377 C 11.711 32.843 10.988 32.811 10.521 32.387 L 10.444 32.464 L 10.521 32.531 C 10.988 32.953 11.711 32.988 12.521 32.521 L 27.132 24.222 C 27.132 24.222 27.033 24.132 27.033 24.132 Z"/>
  <path class="st9" d="M 32.01 21.3 L 27.02 24.132 L 27.11 24.222 L 31.998 21.444 C 32.698 21.045 33.042 20.521 33.042 20 C 33 20.479 32.643 20.933 32.01 21.3 Z"/>
  <path class="st10" d="M 12.511 7.623 L 32.01 18.701 C 32.643 19.057 33 19.524 33.055 20 C 33.055 19.479 32.711 18.955 32.01 18.556 L 12.511 7.479 C 11.112 6.678 9.977 7.347 9.977 8.945 L 9.977 9.09 C 9.977 7.489 11.112 6.833 12.511 7.623 Z"/>
</svg>