<?xml version="1.0" encoding="UTF-8" standalone="no"?>
<svg
   xmlns:dc="http://purl.org/dc/elements/1.1/"
   xmlns:cc="http://creativecommons.org/ns#"
   xmlns:rdf="http://www.w3.org/1999/02/22-rdf-syntax-ns#"
   xmlns:svg="http://www.w3.org/2000/svg"
   xmlns="http://www.w3.org/2000/svg"
   xml:space="preserve"
   enable-background="new 0 0 679 279.401"
   viewBox="0 0 328 179"
   height="179"
   width="328"
   y="0px"
   x="0px"
   id="Layer_1"
   version="1.1"><metadata
     id="metadata132"><rdf:RDF><cc:Work
         rdf:about=""><dc:format>image/svg+xml</dc:format><dc:type
           rdf:resource="http://purl.org/dc/dcmitype/StillImage" /><dc:title></dc:title></cc:Work></rdf:RDF></metadata><defs
     id="defs130" /><g
     transform="translate(0,-100.401)"
     id="g125"><g
       transform="translate(-175.393,97.148)"
       id="g123"><path
         style="fill:#004790"
         id="path113"
         d="m 414.455,106.094 c 7.313,0 13.241,-5.928 13.241,-13.243 0,-7.312 -5.927,-13.238 -13.241,-13.238 -7.314,0 -13.242,5.927 -13.242,13.238 0,7.315 5.928,13.243 13.242,13.243 z" /><path
         style="fill:#0287d0"
         id="path115"
         d="m 475.716,92.851 h 26.891 C 502.607,44.246 463.062,4.7 414.455,4.7 v 26.892 c 33.779,-10e-4 61.261,27.48 61.261,61.259 z" /><path
         style="fill:#0067b0"
         id="path117"
         d="m 438.58,92.851 h 26.892 c 0,-28.129 -22.886,-51.014 -51.017,-51.014 v 26.891 c 13.303,0 24.125,10.824 24.125,24.123 z" /><path
         style="fill:#f1892d"
         id="path119"
         d="m 352.945,92.975 c 0,-2.935 0.221,-5.815 0.62,-8.64 0.814,-5.748 2.428,-11.236 4.723,-16.357 7.861,-17.554 23.726,-30.756 42.925,-34.957 V 5.712 c -22.757,3.419 -42.69,15.54 -56.3,32.88 -1.925,2.453 -3.751,4.986 -5.413,7.639 -7.061,11.259 -11.652,24.212 -13.014,38.104 -0.278,2.844 -0.432,5.725 -0.432,8.64 0,2.938 -0.221,5.819 -0.62,8.644 -0.814,5.748 -2.428,11.236 -4.723,16.357 -9.593,21.418 -31.096,36.387 -56.042,36.387 -33.848,0 -61.385,-27.537 -61.385,-61.388 0,-33.847 27.538,-61.384 61.385,-61.384 24.946,0 46.45,14.969 56.042,36.387 2.478,-9.251 6.318,-18.132 11.465,-26.339 l 1.91,-3.047 C 317.915,17.988 292.831,4.699 264.669,4.699 c -48.676,0 -88.276,39.603 -88.276,88.275 0,48.677 39.601,88.278 88.276,88.278 28.162,0 53.246,-13.287 69.417,-33.892 1.925,-2.454 3.751,-4.986 5.414,-7.639 7.061,-11.258 11.652,-24.213 13.014,-38.104 0.278,-2.843 0.431,-5.723 0.431,-8.642 z" /><path
         style="fill:#f39c12"
         id="path121"
         d="m 414.331,154.362 c -24.946,0 -46.45,-14.969 -56.042,-36.387 -2.478,9.251 -6.318,18.132 -11.465,26.339 l -1.91,3.047 c 16.172,20.604 41.256,33.892 69.418,33.892 44.218,0 80.94,-32.68 87.296,-75.159 h -27.337 c -6.027,27.567 -30.615,48.268 -59.96,48.268 z" /></g></g></svg>